<?xml version="1.0" encoding="utf-8"?>
<!-- Generator: Adobe Illustrator 27.5.0, SVG Export Plug-In . SVG Version: 6.00 Build 0)  -->
<svg version="1.1" id="Capa_1" xmlns="http://www.w3.org/2000/svg" xmlns:xlink="http://www.w3.org/1999/xlink" x="0px" y="0px"
	 viewBox="0 0 1898 2372" style="enable-background:new 0 0 1898 2372;" xml:space="preserve">
<g>
	
		<rect x="0.001" y="-0.521" transform="matrix(-1 -1.224647e-16 1.224647e-16 -1 1897.3668 2370.665)" style="fill:#2A2D56;" width="1897.366" height="2371.708"/>
	<g>
		<g>
			<polygon style="fill:#40467F;" points="1636.437,-0.522 1897.367,163.95 1897.367,-0.522 			"/>
			<polygon style="fill:#40467F;" points="1321.251,-0.522 1897.367,397.768 1897.367,164.795 1582.642,-0.522 			"/>
			<polygon style="fill:#40467F;" points="407.795,-0.522 1897.367,1156.345 1897.367,994.678 572.105,-0.522 			"/>
			<polygon style="fill:#40467F;" points="-0.001,-0.522 -0.001,365.634 1897.367,2071.081 1897.367,1815.886 1388.288,1314.328 
				1897.367,1724.245 1897.367,1308.167 259.765,-0.522 			"/>
			<polygon style="fill:#40467F;" points="-0.001,1732.672 165.557,2001.062 -0.001,1856.239 -0.001,2004.102 376.942,2371.187 
				859.082,2371.187 -0.001,1519.897 			"/>
			<path style="fill:#40467F;" d="M1576.25,2371.187h278.117C1427.082,2009.928,230.754,1000.071,230.754,1000.071L1576.25,2371.187
				z"/>
			<path style="fill:#40467F;" d="M-0.001,881.295v140.428c413.92,349.51,803.476,678.345,803.476,678.345L-0.001,881.295z"/>
		</g>
	</g>
	<g>
		<circle style="fill:#FFFFFF;" cx="1752.749" cy="633.413" r="6.257"/>
		<path style="fill:#FFFFFF;" d="M1366.158,809.214c0,5.71,4.629,10.338,10.338,10.338c5.71,0,10.339-4.629,10.339-10.338
			c0-5.71-4.628-10.338-10.339-10.338C1370.786,798.876,1366.158,803.505,1366.158,809.214z"/>
		
			<ellipse transform="matrix(0.9732 -0.2298 0.2298 0.9732 -158.5872 395.5815)" style="fill:#FFFFFF;" cx="1619.442" cy="878.808" rx="17.684" ry="17.684"/>
		<path style="fill:#FFFFFF;" d="M1752.749,1170.464c0,4.055,3.286,7.342,7.342,7.342c4.055,0,7.341-3.287,7.341-7.342
			c0-4.054-3.286-7.342-7.341-7.342C1756.036,1163.122,1752.749,1166.41,1752.749,1170.464z"/>
		<path style="fill:#FFFFFF;" d="M1331.879,1216.157c0,2.554,2.071,4.625,4.625,4.625c2.555,0,4.625-2.071,4.625-4.625
			c0-2.554-2.071-4.625-4.625-4.625C1333.949,1211.532,1331.879,1213.603,1331.879,1216.157z"/>
		<path style="fill:#FFFFFF;" d="M1092.469,982.189c0,1.953,1.583,3.536,3.536,3.536c1.953,0,3.537-1.583,3.537-3.536
			c0-1.953-1.583-3.537-3.537-3.537C1094.052,978.652,1092.469,980.236,1092.469,982.189z"/>
		<path style="fill:#FFFFFF;" d="M992.694,720.983c0,3.963,3.212,7.175,7.175,7.175c3.963,0,7.175-3.212,7.175-7.175
			c0-3.963-3.212-7.175-7.175-7.175C995.906,713.808,992.694,717.02,992.694,720.983z"/>
		<path style="fill:#FFFFFF;" d="M1578.633,1534.327c0,6.386,5.177,11.563,11.563,11.563c6.386,0,11.563-5.177,11.563-11.563
			s-5.177-11.562-11.563-11.562C1583.81,1522.764,1578.633,1527.941,1578.633,1534.327z"/>
		<circle style="fill:#FFFFFF;" cx="1653.449" cy="1786.114" r="4.353"/>
		<path style="fill:#FFFFFF;" d="M1582.356,2006.783c0,5.358,4.343,9.701,9.702,9.701c5.358,0,9.701-4.344,9.701-9.701
			c0-5.358-4.344-9.701-9.701-9.701C1586.699,1997.082,1582.356,2001.425,1582.356,2006.783z"/>
		<path style="fill:#FFFFFF;" d="M1752.749,2261.393c0,4.054,3.286,7.342,7.342,7.342c4.055,0,7.341-3.287,7.341-7.342
			c0-4.055-3.286-7.342-7.341-7.342C1756.036,2254.051,1752.749,2257.338,1752.749,2261.393z"/>
		
			<ellipse transform="matrix(0.9702 -0.2422 0.2422 0.9702 -497.3102 346.203)" style="fill:#FFFFFF;" cx="1159.395" cy="2195.723" rx="21.764" ry="21.764"/>
		<path style="fill:#FFFFFF;" d="M1176.806,1870.996c0,4.808,3.898,8.706,8.707,8.706c4.808,0,8.705-3.897,8.705-8.706
			c0-4.808-3.898-8.706-8.705-8.706C1180.704,1862.29,1176.806,1866.188,1176.806,1870.996z"/>
		<circle style="fill:#FFFFFF;" cx="895.296" cy="1543.781" r="9.454"/>
		<path style="fill:#FFFFFF;" d="M1048.513,1495.734c0,2.973,2.41,5.383,5.383,5.383c2.973,0,5.383-2.41,5.383-5.383
			c0-2.973-2.41-5.383-5.383-5.383C1050.923,1490.351,1048.513,1492.762,1048.513,1495.734z"/>
		<path style="fill:#FFFFFF;" d="M800.718,1295.98c0,2.885,2.338,5.223,5.223,5.223c2.884,0,5.223-2.338,5.223-5.223
			c0-2.884-2.338-5.223-5.223-5.223C803.056,1290.758,800.718,1293.096,800.718,1295.98z"/>
		<path style="fill:#FFFFFF;" d="M431.373,1475.427c0,3.906,3.167,7.073,7.073,7.073c3.907,0,7.073-3.167,7.073-7.073
			c0-3.907-3.167-7.073-7.073-7.073C434.54,1468.353,431.373,1471.52,431.373,1475.427z"/>
		<path style="fill:#FFFFFF;" d="M503.196,1678.924c0,2.103,1.705,3.809,3.809,3.809s3.809-1.706,3.809-3.809
			c0-2.104-1.706-3.809-3.809-3.809S503.196,1676.821,503.196,1678.924z"/>
		<path style="fill:#FFFFFF;" d="M543.46,2023.347c0-1.202,0.974-2.176,2.177-2.176c1.202,0,2.176,0.974,2.176,2.176
			s-0.974,2.177-2.176,2.177C544.434,2025.524,543.46,2024.549,543.46,2023.347z"/>
		
			<ellipse transform="matrix(0.9995 -0.033 0.033 0.9995 -70.79 27.0841)" style="fill:#FFFFFF;" cx="785.264" cy="2158.505" rx="15.454" ry="15.454"/>
		<path style="fill:#FFFFFF;" d="M314.121,2278.398c0-9.392-7.614-17.005-17.006-17.005c-9.391,0-17.005,7.613-17.005,17.005
			s7.614,17.005,17.005,17.005C306.507,2295.403,314.121,2287.79,314.121,2278.398z"/>
		<path style="fill:#FFFFFF;" d="M214.816,1936.289c0-2.404,1.948-4.353,4.352-4.353s4.354,1.949,4.354,4.353
			s-1.949,4.353-4.354,4.353S214.816,1938.693,214.816,1936.289z"/>
		<path style="fill:#FFFFFF;" d="M146.258,1721.365c0-4.508-3.654-8.162-8.162-8.162c-4.507,0-8.162,3.654-8.162,8.162
			c0,4.508,3.654,8.162,8.162,8.162C142.604,1729.527,146.258,1725.873,146.258,1721.365z"/>
		<path style="fill:#FFFFFF;" d="M609.842,1051.019c0,7.513,6.09,13.603,13.602,13.603c7.513,0,13.603-6.09,13.603-13.603
			c0-7.512-6.09-13.602-13.603-13.602C615.932,1037.417,609.842,1043.506,609.842,1051.019z"/>
		<path style="fill:#FFFFFF;" d="M366.463,896.683c0,6.806,5.517,12.323,12.323,12.323c6.806,0,12.323-5.517,12.323-12.323
			c0-6.806-5.518-12.323-12.323-12.323C371.98,884.36,366.463,889.877,366.463,896.683z"/>
		<path style="fill:#FFFFFF;" d="M637.047,767.537c0,4.808,3.898,8.705,8.706,8.705c4.808,0,8.706-3.897,8.706-8.705
			c0-4.808-3.898-8.706-8.706-8.706C640.945,758.831,637.047,762.729,637.047,767.537z"/>
		<path style="fill:#FFFFFF;" d="M179.993,638.784c0,6.422,5.206,11.629,11.629,11.629c6.422,0,11.629-5.206,11.629-11.629
			c0-6.422-5.206-11.628-11.629-11.628C185.199,627.156,179.993,632.362,179.993,638.784z"/>
		<path style="fill:#FFFFFF;" d="M173.384,1193.627c0,5.036,4.082,9.119,9.119,9.119c5.036,0,9.119-4.083,9.119-9.119
			c0-5.036-4.082-9.12-9.119-9.12C177.466,1184.507,173.384,1188.591,173.384,1193.627z"/>
	</g>
	<g>
		<path style="fill:#FFFFFF;" d="M150.875,619.684c0-3.456-2.801-6.257-6.257-6.257c-3.456,0-6.257,2.801-6.257,6.257
			c0,3.456,2.801,6.257,6.257,6.257C148.074,625.941,150.875,623.14,150.875,619.684z"/>
		<circle style="fill:#FFFFFF;" cx="520.872" cy="443.883" r="10.338"/>
		<path style="fill:#FFFFFF;" d="M295.608,374.289c0-9.766-7.917-17.684-17.683-17.684c-9.766,0-17.684,7.917-17.684,17.684
			c0,9.766,7.917,17.684,17.684,17.684C287.692,391.973,295.608,384.056,295.608,374.289z"/>
		<path style="fill:#FFFFFF;" d="M144.618,82.633c0-4.055-3.286-7.342-7.342-7.342c-4.055,0-7.341,3.287-7.341,7.342
			c0,4.055,3.287,7.342,7.341,7.342C141.331,89.974,144.618,86.687,144.618,82.633z"/>
		<path style="fill:#FFFFFF;" d="M565.489,36.94c0-2.554-2.07-4.625-4.625-4.625c-2.554,0-4.625,2.071-4.625,4.625
			c0,2.555,2.07,4.625,4.625,4.625C563.418,41.565,565.489,39.494,565.489,36.94z"/>
		<path style="fill:#FFFFFF;" d="M804.898,270.908c0-1.953-1.584-3.537-3.537-3.537c-1.953,0-3.536,1.583-3.536,3.537
			c0,1.953,1.584,3.536,3.536,3.536C803.314,274.445,804.898,272.861,804.898,270.908z"/>
		<path style="fill:#FFFFFF;" d="M904.673,532.114c0-3.962-3.212-7.175-7.175-7.175c-3.962,0-7.174,3.212-7.174,7.175
			c0,3.963,3.212,7.175,7.174,7.175C901.461,539.289,904.673,536.076,904.673,532.114z"/>
		<path style="fill:#FFFFFF;" d="M1287.525,202.078c0-7.513-6.09-13.603-13.603-13.603s-13.602,6.09-13.602,13.603
			c0,7.512,6.089,13.603,13.602,13.603S1287.525,209.59,1287.525,202.078z"/>
		<path style="fill:#FFFFFF;" d="M1530.905,356.414c0-6.806-5.517-12.323-12.323-12.323c-6.806,0-12.323,5.517-12.323,12.323
			c0,6.806,5.517,12.323,12.323,12.323C1525.387,368.737,1530.905,363.22,1530.905,356.414z"/>
		<path style="fill:#FFFFFF;" d="M1260.32,485.56c0-4.808-3.898-8.705-8.706-8.705s-8.706,3.897-8.706,8.705
			c0,4.808,3.898,8.706,8.706,8.706S1260.32,490.368,1260.32,485.56z"/>
		<path style="fill:#FFFFFF;" d="M1717.375,614.313c0-6.422-5.207-11.629-11.629-11.629s-11.629,5.206-11.629,11.629
			c0,6.422,5.206,11.628,11.629,11.628S1717.375,620.735,1717.375,614.313z"/>
		<path style="fill:#FFFFFF;" d="M1723.984,59.47c0-5.036-4.082-9.119-9.119-9.119c-5.036,0-9.119,4.083-9.119,9.119
			s4.083,9.119,9.119,9.119C1719.901,68.589,1723.984,64.506,1723.984,59.47z"/>
	</g>
	<polygon style="fill:#5762A4;" points="982.757,1731.275 1737.172,2372.23 530.044,2372.23 436.961,2277.071 405.6,1866.867 
		582.859,1675.116 	"/>
</g>
<g>
	<path style="fill:none;" d="M822.996,990.625c-0.762-6.165-1.445-12.354-2.052-18.565c-10.216,2.721-20.241,5.424-30.06,8.108l0,0
		c-64.446,17.617-120.189,34.407-165.413,49.872c-0.011,0.004-0.022,0.008-0.034,0.012c-8.161,2.791-15.976,5.538-23.441,8.24
		c-0.062,0.022-0.127,0.045-0.189,0.067c-3.7,1.34-7.309,2.667-10.834,3.984c-0.054,0.021-0.112,0.041-0.167,0.061
		c-3.353,1.253-6.609,2.493-9.799,3.724c-0.23,0.089-0.474,0.178-0.702,0.267c-3.119,1.207-6.142,2.401-9.104,3.586
		c-0.261,0.105-0.541,0.211-0.8,0.316c-2.998,1.202-5.899,2.392-8.731,3.573c-0.193,0.08-0.4,0.162-0.592,0.242
		c-2.717,1.136-5.334,2.257-7.897,3.371c-0.291,0.127-0.603,0.255-0.892,0.382c-2.429,1.061-4.755,2.107-7.041,3.148
		c-0.379,0.172-0.787,0.349-1.162,0.521c-2.179,1-4.253,1.984-6.297,2.964c-0.426,0.204-0.888,0.414-1.309,0.618
		c-1.975,0.956-3.844,1.897-5.687,2.834c-0.428,0.218-0.894,0.441-1.314,0.658c-1.784,0.917-3.459,1.819-5.114,2.718
		c-0.417,0.226-0.874,0.458-1.282,0.683c-1.558,0.859-3.005,1.701-4.442,2.542c-0.438,0.257-0.922,0.52-1.348,0.774
		c-1.357,0.809-2.601,1.602-3.843,2.394c-0.429,0.273-0.905,0.554-1.321,0.826c-1.174,0.767-2.234,1.517-3.297,2.269
		c-0.401,0.283-0.852,0.574-1.238,0.855c-0.74,0.539-1.374,1.063-2.055,1.593c36.598,15.212,158.298,12.403,333.727-5.422
		c-7.173-28.457-12.738-57.555-16.412-87.245C822.901,990.604,822.949,990.613,822.996,990.625z"/>
	<path style="fill:#058FB5;" d="M508.832,1080.813c1.063-0.752,2.124-1.501,3.297-2.269c0.416-0.272,0.892-0.553,1.321-0.826
		c1.242-0.792,2.487-1.585,3.843-2.394c0.427-0.254,0.91-0.518,1.348-0.774c1.437-0.841,2.884-1.683,4.442-2.542
		c0.408-0.225,0.866-0.457,1.282-0.683c1.655-0.899,3.33-1.801,5.114-2.718c0.421-0.216,0.886-0.44,1.314-0.658
		c1.843-0.937,3.712-1.878,5.687-2.834c0.421-0.204,0.882-0.414,1.309-0.618c2.044-0.98,4.118-1.964,6.297-2.964
		c0.375-0.172,0.783-0.349,1.162-0.521c2.285-1.041,4.611-2.087,7.041-3.148c0.289-0.127,0.602-0.255,0.892-0.382
		c2.563-1.114,5.18-2.235,7.897-3.371c0.192-0.08,0.399-0.162,0.592-0.242c2.832-1.181,5.733-2.371,8.731-3.573
		c0.26-0.105,0.539-0.211,0.8-0.316c2.962-1.185,5.985-2.379,9.104-3.586c0.229-0.089,0.472-0.178,0.702-0.267
		c3.191-1.232,6.446-2.472,9.799-3.724c0.055-0.02,0.113-0.041,0.167-0.061c3.525-1.317,7.135-2.645,10.834-3.984
		c0.062-0.022,0.127-0.045,0.189-0.067c7.466-2.702,15.28-5.45,23.441-8.24c0.011-0.004,0.023-0.008,0.034-0.012
		c45.225-15.465,100.967-32.255,165.413-49.872l0,0c9.819-2.684,19.844-5.387,30.06-8.108c-0.879-9.002-1.568-18.056-2.115-27.152
		c-9.488,2.532-18.823,5.05-27.966,7.549c-187.507,51.26-301.339,95.512-296.755,120.505c0.746,4.067,4.66,7.486,11.431,10.3
		c0.681-0.53,1.315-1.054,2.055-1.593C507.979,1081.387,508.431,1081.096,508.832,1080.813z"/>
	<path style="fill:#058FB5;" d="M1895.046,997.088c-103.152,22.88-212.181,45.003-325.218,65.734
		c-648.714,118.976-1191.237,148.755-1243.502,70.447c-0.39,0.723-0.743,1.44-1.08,2.155c-0.303,0.644-0.572,1.284-0.829,1.922
		c-0.436,1.077-0.8,2.143-1.107,3.2c-0.18,0.62-0.364,1.239-0.5,1.854c-0.246,1.115-0.385,2.214-0.484,3.308
		c-0.046,0.517-0.138,1.041-0.151,1.555c-0.041,1.588,0.042,3.158,0.325,4.698c10.176,55.482,229.106,65.934,554.441,36.418
		c198.472-18.004,436.522-50.878,691.007-97.497c0.628-0.116,1.251-0.228,1.879-0.342c76.2-13.976,150.569-28.587,222.566-43.63
		c34.812-7.275,69.031-14.656,102.652-22.113V997.088z"/>
	<path style="fill:#FEDCA9;" d="M913.563,1261.249c-0.553-0.959-1.087-1.931-1.637-2.893
		C912.474,1259.318,913.01,1260.29,913.563,1261.249z"/>
	<path style="fill:#FEDCA9;" d="M820.813,831.27c0.46-4.833,0.988-9.648,1.544-14.454
		C821.801,821.622,821.276,826.437,820.813,831.27z"/>
	<path style="fill:#FEDCA9;" d="M827.81,778.646c0.572-3.365,1.164-6.722,1.783-10.07
		C828.973,771.924,828.384,775.283,827.81,778.646z"/>
	<path style="fill:#FEDCA9;" d="M823.263,808.891c0.824-6.505,1.758-12.975,2.754-19.424
		C825.019,795.915,824.09,802.388,823.263,808.891z"/>
	<path style="fill:#FEDCA9;" d="M818.927,855.389c0.319-5.142,0.685-10.27,1.11-15.382
		C819.611,845.119,819.247,850.247,818.927,855.389z"/>
	<path style="fill:#FEDCA9;" d="M935.026,1296.086c-1.604-2.447-3.209-4.89-4.784-7.357
		C931.814,1291.198,933.424,1293.638,935.026,1296.086z"/>
	<path style="fill:#FEDCA9;" d="M817.673,883.937c0.167-7.223,0.437-14.421,0.814-21.591
		C818.109,869.516,817.839,876.713,817.673,883.937z"/>
	<path style="fill:#FEDCA9;" d="M923.784,1278.385c-1.136-1.849-2.26-3.705-3.381-5.566
		C921.522,1274.679,922.648,1276.536,923.784,1278.385z"/>
	<path style="fill:#FEDCA9;" d="M1005.088,415.136c0.08-0.089,0.162-0.178,0.243-0.267
		C1005.249,414.958,1005.168,415.047,1005.088,415.136z"/>
	<path style="fill:#FEDCA9;" d="M831.833,756.885c0.572-2.834,1.197-5.648,1.802-8.469
		C833.029,751.236,832.406,754.051,831.833,756.885z"/>
	<path style="fill:#FEDCA9;" d="M993.655,428.021c0.018-0.021,0.035-0.04,0.053-0.06
		C993.69,427.981,993.673,428.001,993.655,428.021z"/>
	<path style="fill:#FEDCA9;" d="M838.812,726.047c0.582-2.346,1.145-4.698,1.75-7.034
		C839.957,721.349,839.395,723.702,838.812,726.047z"/>
	<path style="fill:#FEDCA9;" d="M843.964,706.445c0.717-2.573,1.454-5.137,2.199-7.698
		C845.418,701.308,844.681,703.872,843.964,706.445z"/>
	<path style="fill:#FEDCA9;" d="M1453.436,1618.408c-7.869-0.942-15.714-1.964-23.503-3.156
		C1437.722,1616.444,1445.566,1617.468,1453.436,1618.408z"/>
	<path style="fill:#FEDCA9;" d="M1375.129,1604.658c-7.503-1.754-14.95-3.65-22.361-5.636
		C1360.179,1601.006,1367.625,1602.906,1375.129,1604.658z"/>
	<path style="fill:#FEDCA9;" d="M1508.69,1622.882c-8.077-0.346-16.132-0.776-24.138-1.385
		C1492.557,1622.107,1500.613,1622.536,1508.69,1622.882z"/>
	<path style="fill:#FEDCA9;" d="M1347.738,1597.661c-15.827-4.365-31.436-9.248-46.806-14.642
		C1316.304,1588.409,1331.909,1593.3,1347.738,1597.661z"/>
	<path style="fill:#FEDCA9;" d="M1193.91,266.451c0.724-0.396,1.441-0.805,2.167-1.198
		C1195.351,265.647,1194.635,266.055,1193.91,266.451z"/>
	<path style="fill:#FEDCA9;" d="M1427.772,1614.894c-7.318-1.143-14.592-2.419-21.835-3.78
		C1413.18,1612.475,1420.454,1613.752,1427.772,1614.894z"/>
	<path style="fill:#FEDCA9;" d="M1399.773,1609.933c-7.816-1.54-15.603-3.163-23.326-4.954
		C1384.171,1606.769,1391.957,1608.394,1399.773,1609.933z"/>
	<path style="fill:#FEDCA9;" d="M977.927,1354.959c-3.67-4.533-7.277-9.119-10.838-13.74
		C970.647,1345.844,974.26,1350.424,977.927,1354.959z"/>
	<path style="fill:#FEDCA9;" d="M963.977,1337.16c-3.126-4.115-6.193-8.277-9.232-12.461
		C957.781,1328.885,960.854,1333.042,963.977,1337.16z"/>
	<path style="fill:#FEDCA9;" d="M1201.737,1539.584c-15.366-8.163-30.407-16.858-45.091-26.07
		C1171.331,1522.726,1186.368,1531.423,1201.737,1539.584z"/>
	<path style="fill:#FEDCA9;" d="M1248.691,1562.373c-15.676-6.922-31.064-14.376-46.133-22.357
		C1217.629,1547.994,1233.012,1555.454,1248.691,1562.373z"/>
	<path style="fill:#FEDCA9;" d="M1297.379,1581.768c-15.798-5.638-31.346-11.803-46.615-18.488
		C1266.035,1569.962,1281.578,1576.133,1297.379,1581.768z"/>
	<path style="fill:#FEDCA9;" d="M951.453,1320.184c-3.648-5.103-7.225-10.26-10.741-15.461
		C944.223,1309.928,947.809,1315.078,951.453,1320.184z"/>
	<path style="fill:#FEDCA9;" d="M1562.234,178.613c5.448,0.165,10.889,0.365,16.306,0.65
		C1573.121,178.98,1567.682,178.777,1562.234,178.613z"/>
	<path style="fill:#FEDCA9;" d="M1540.136,178.247c-0.023,0-0.047,0.001-0.071,0.001c6.444,0,12.868,0.087,19.271,0.256
		C1552.956,178.337,1546.557,178.247,1540.136,178.247z"/>
	<path style="fill:#FEDCA9;" d="M1601.226,180.841c5.173,0.435,10.338,0.899,15.479,1.443
		C1611.563,181.742,1606.399,181.274,1601.226,180.841z"/>
	<path style="fill:#FEDCA9;" d="M1582.106,179.49c5.193,0.299,10.378,0.626,15.54,1.034
		C1592.483,180.117,1587.299,179.788,1582.106,179.49z"/>
	<path style="fill:#FEDCA9;" d="M1208.646,258.621c1.661-0.858,3.324-1.71,4.992-2.557
		C1211.971,256.911,1210.307,257.762,1208.646,258.621z"/>
	<path style="fill:#FEDCA9;" d="M1496.055,179.624c4.925-0.296,9.863-0.541,14.813-0.737
		C1505.918,179.083,1500.98,179.327,1496.055,179.624z"/>
	<path style="fill:#FEDCA9;" d="M1656.745,187.659c5.555,0.903,11.091,1.858,16.602,2.887
		C1667.835,189.519,1662.3,188.561,1656.745,187.659z"/>
	<path style="fill:#FEDCA9;" d="M1619.899,182.649c5.264,0.58,10.518,1.197,15.748,1.889
		C1630.416,183.847,1625.165,183.227,1619.899,182.649z"/>
	<path style="fill:#FEDCA9;" d="M1146.598,411.708c42.61-29.999,86.265-52.123,127.159-65.486
		c7.942,4.186,16.012,8.124,24.349,11.51c49.734,20.198,100.034,19.871,150.062,9.07c-0.07-0.087-0.127-0.182-0.198-0.269
		c-32.451-39.905-98.507-45.004-174.035-20.365c-34.649-18.285-65.627-43.623-93.104-72.405
		c-34.423,19.764-67.046,42.301-97.606,67.27C1101.481,367.115,1122.457,391.191,1146.598,411.708z"/>
	<path style="fill:#FEDCA9;" d="M1674.877,190.84c5.758,1.088,11.495,2.236,17.205,3.46
		C1686.371,193.078,1680.636,191.926,1674.877,190.84z"/>
	<path style="fill:#FEDCA9;" d="M1472.032,181.464c5.351-0.5,10.714-0.956,16.098-1.339
		C1482.747,180.509,1477.383,180.964,1472.032,181.464z"/>
	<path style="fill:#FEDCA9;" d="M1638.448,184.93c5.379,0.734,10.745,1.512,16.086,2.363
		C1649.192,186.443,1643.828,185.663,1638.448,184.93z"/>
	<path style="fill:#FEDCA9;" d="M1518.172,178.609c7.102-0.211,14.222-0.35,21.374-0.354
		C1532.394,178.26,1525.274,178.396,1518.172,178.609z"/>
	<path style="fill:#FEDCA9;" d="M1289.672,222.852c2.544-0.94,5.104-1.842,7.661-2.754
		C1294.776,221.011,1292.216,221.912,1289.672,222.852z"/>
	<path style="fill:#FEDCA9;" d="M1316.772,213.484c2.968-0.963,5.923-1.954,8.907-2.88
		C1322.695,211.53,1319.74,212.52,1316.772,213.484z"/>
	<path style="fill:#FEDCA9;" d="M1271.115,230.022c2.358-0.947,4.718-1.887,7.088-2.81
		C1275.833,228.134,1273.474,229.075,1271.115,230.022z"/>
	<path style="fill:#FEDCA9;" d="M1255.193,236.633c1.383-0.595,2.754-1.213,4.143-1.799
		C1257.948,235.421,1256.576,236.038,1255.193,236.633z"/>
	<path style="fill:#FEDCA9;" d="M1226.012,249.915c1.425-0.688,2.865-1.35,4.295-2.03
		C1228.878,248.566,1227.437,249.226,1226.012,249.915z"/>
	<path style="fill:#FEDCA9;" d="M1446.197,184.319c6.71-0.87,13.441-1.67,20.207-2.355
		C1459.638,182.649,1452.906,183.448,1446.197,184.319z"/>
	<path style="fill:#FEDCA9;" d="M1425.127,187.394c4.148-0.663,8.309-1.282,12.481-1.874
		C1433.437,186.114,1429.275,186.73,1425.127,187.394z"/>
	<path style="fill:#FEDCA9;" d="M1336.349,207.431c3.099-0.909,6.199-1.812,9.315-2.68
		C1342.548,205.618,1339.447,206.521,1336.349,207.431z"/>
	<path style="fill:#FEDCA9;" d="M1403.628,191.178c4.034-0.77,8.073-1.528,12.13-2.232
		C1411.701,189.65,1407.662,190.407,1403.628,191.178z"/>
	<path style="fill:#FEDCA9;" d="M1376.26,196.915c6.16-1.427,12.347-2.782,18.566-4.05
		C1388.608,194.135,1382.42,195.487,1376.26,196.915z"/>
	<path style="fill:#FEDCA9;" d="M1356.191,201.902c3.384-0.887,6.783-1.735,10.186-2.574
		C1362.973,200.167,1359.575,201.013,1356.191,201.902z"/>
	<path style="fill:#FEDCA9;" d="M1482.535,1621.318c-7.487-0.589-14.933-1.322-22.353-2.139
		C1467.602,1619.996,1475.048,1620.729,1482.535,1621.318z"/>
	<path style="fill:#FEDCA9;" d="M996.655,1377.119c-5.799-6.611-11.522-13.29-17.078-20.112
		C985.137,1363.825,990.858,1370.507,996.655,1377.119z"/>
	<path style="fill:#FEDCA9;" d="M1896.984,1529.391c-1.221-3.099-1.938-6.612-1.938-10.593v-49.683
		c-5.358-1.845-10.63-3.659-15.71-5.464c-71.238-25.302-137.66-63.304-208.741-89.581c-92.362-34.143-191.294-52.202-290.303-53.627
		c0.075-0.001,0.148-0.001,0.224-0.003c-18.202-0.25-36.405-0.056-54.571,0.832c-0.281,0.003-0.561,0.002-0.84,0.006
		c-53.162,2.6-105.998,10.085-157.496,22.59c-48.24,11.713-96.604,25.508-143.955,40.405c-5.224,1.643-10.452,3.444-15.69,5.31
		c37.844,41.189,80.336,78.019,126.763,109.543c30.833-6.161,61.542-13.167,92.502-18.606
		c83.007-14.583,167.291-23.834,251.661-19.445c85.824,4.464,167.645,26.001,247.456,57.125
		c35.348,13.786,71.02,28.459,106.213,43.641c-30.474,13.516-62.06,24.979-94.574,34.234
		C1794.062,1580.146,1847.356,1557.63,1896.984,1529.391z"/>
	<path style="fill:#FEDCA9;" d="M1895.046,1284.898c-34.001,4.206-68.008,8.043-102.026,11.465
		c-0.203,0.021-0.404,0.037-0.606,0.057c34.059,12.538,68.213,24.794,102.632,36.296V1284.898z"/>
	<path style="fill:#FEDCA9;" d="M1156.546,1513.451c-7.376-4.628-14.624-9.44-21.818-14.325l-0.09,0.017
		C1141.848,1504.041,1149.152,1508.811,1156.546,1513.451z"/>
	<path style="fill:#FEDCA9;" d="M1685.457,1608.881c-6.344,1.299-12.728,2.49-19.132,3.621
		C1672.731,1611.375,1679.111,1610.178,1685.457,1608.881z"/>
	<path style="fill:#FEDCA9;" d="M1660.985,1613.466c-8.093,1.367-16.226,2.62-24.409,3.716
		C1644.761,1616.09,1652.891,1614.829,1660.985,1613.466z"/>
	<path style="fill:#FEDCA9;" d="M1736.135,1596.587c-7.062,1.99-14.175,3.862-21.323,5.641
		C1721.963,1600.452,1729.071,1598.573,1736.135,1596.587z"/>
	<path style="fill:#FEDCA9;" d="M1710.23,1603.346c-6.351,1.536-12.738,2.975-19.153,4.342
		C1697.494,1606.325,1703.878,1604.88,1710.23,1603.346z"/>
	<path style="fill:#FEDCA9;" d="M1895.046,1024.795c-33.621,7.457-67.841,14.838-102.652,22.113c0.041,0.043,0.083,0.087,0.125,0.13
		c0.21-0.045,0.426-0.087,0.636-0.132c34.549-7.219,68.515-14.542,101.891-21.942V1024.795z"/>
	<path style="fill:#FEDCA9;" d="M877.703,1188.379c198.361-17.995,436.255-50.843,690.58-97.421
		c-0.112-0.025-0.221-0.052-0.334-0.077c-254.485,46.62-492.535,79.494-691.007,97.498c8.604,19.825,18.038,39.204,28.321,58.059
		c0.213-0.077,0.425-0.154,0.639-0.23C895.668,1227.425,886.274,1208.123,877.703,1188.379z"/>
	<path style="fill:#FEDCA9;" d="M1635.799,1617.291c-5.785,0.768-11.596,1.455-17.422,2.084
		C1624.204,1618.748,1630.013,1618.056,1635.799,1617.291z"/>
	<path style="fill:#FEDCA9;" d="M1539.722,1623.598c-8.184-0.003-16.323-0.192-24.44-0.466
		C1523.399,1623.406,1531.539,1623.594,1539.722,1623.598z"/>
	<path style="fill:#FEDCA9;" d="M1578.501,1622.589c-5.606,0.295-11.234,0.504-16.874,0.67
		C1567.267,1623.095,1572.896,1622.882,1578.501,1622.589z"/>
	<path style="fill:#FEDCA9;" d="M1597.654,1621.327c-5.464,0.432-10.952,0.781-16.449,1.091
		C1586.703,1622.11,1592.189,1621.757,1597.654,1621.327z"/>
	<path style="fill:#FEDCA9;" d="M1540.136,1623.604c6.411,0,12.802-0.09,19.172-0.256c-6.394,0.169-12.809,0.255-19.244,0.255
		C1540.089,1623.603,1540.113,1623.604,1540.136,1623.604z"/>
	<path style="fill:#FEDCA9;" d="M1897.367,1090.393c-9.6-1.868-19.178-4.106-28.73-6.772c-6.312-1.762-12.994-3.684-19.764-5.89
		c6.769,2.206,13.452,4.128,19.764,5.89C1878.189,1086.287,1887.767,1088.525,1897.367,1090.393z"/>
	<path style="fill:#FEDCA9;" d="M1616.746,1619.562c-5.587,0.591-11.199,1.1-16.824,1.563
		C1605.547,1620.664,1611.158,1620.151,1616.746,1619.562z"/>
	<path style="fill:#FEDCA9;" d="M1811.572,231.104c-12.974-5.262-26.129-10.159-39.464-14.677
		C1785.441,220.948,1798.6,225.839,1811.572,231.104z"/>
	<path style="fill:#FEDCA9;" d="M961.865,717.719c3.26,11.549,8.466,22.061,15.885,31.183
		c44.117,54.253,150.342,44.175,258.052-17.522c26.496-2.634,52.941-6.264,79.294-10.857
		c199.647-34.797,384.943-120.563,579.95-172.552v-116.74c-39.023,12.452-77.358,27.804-115.012,43.868
		c-114.1,48.676-228.254,93.1-349.773,119.898c-13.847,3.053-27.743,5.876-41.681,8.488c-21.787,26.159-47.591,51.804-76.959,75.684
		c-24.803,20.17-50.323,37.602-75.761,52.178c-71.411,7.122-143.214,6.77-214.739-3.271c-19.82-2.783-39.574-6.39-59.26-10.367
		c-8.158-28.918-3.674-64.568,11.649-102.77c35.543,8.162,72.115,11.366,108.667,12.3c102.566,2.62,205.612-4.898,306.471-23.836
		c34.384-41.298,58.625-83.859,70.632-122.847c150.436-29.12,282.048-126.507,435.765-140.229v-68.924
		c-19.925-11.257-40.434-21.586-61.476-30.948c-35.849,1.893-71.532,8.709-105.821,19.215
		c-88.247,27.039-183.402,86.49-279.546,107.18c22.479,27.918,25.035,68.358,11.098,113.648c-7.585,1.474-15.202,2.831-22.887,3.937
		c-81.766,11.773-169.18,0.855-242.213-39.473c-17.172-9.482-33.053-20.656-47.764-33.146
		c-10.869,7.656-21.675,15.775-32.339,24.448c-67.947,55.254-117.002,119.908-140.564,178.618
		c-14.122-3.252-28.096-7.212-41.818-12.241c-14.363-5.264-27.966-11.76-40.896-19.253c-16.781,34.252-30.93,70.022-42.188,107.056
		c12.407,3.839,24.969,7.128,37.423,10.154C911.161,706.698,936.45,712.578,961.865,717.719z"/>
	<path style="fill:#FEDCA9;" d="M1895.046,677.074c-28.098,9.976-55.418,20.673-81.575,31.444
		c-101.561,41.824-199.986,90.666-303.379,128.059c-129.757,46.93-265.601,79.67-404.137,81.321
		c-82.049,0.976-164.258-8.857-244.857-23.593c-14.485-2.647-28.976-5.458-43.451-8.377c-0.071,3.471-0.11,6.951-0.132,10.434
		c-0.009,1.524-0.059,3.038-0.059,4.564c0,14.773,0.497,29.428,1.372,43.982c0.546,9.095,1.237,18.15,2.115,27.151
		c0.607,6.212,1.29,12.401,2.053,18.566c46.12,10.498,93.968,15.24,139.198,18.432c107.802,7.609,217.026,3.151,323.908-12.546
		c124.258-18.25,237.945-60.646,353.124-109.087c84.574-35.569,168.329-70.915,255.82-95.746V677.074z"/>
	<path style="fill:#FEDCA9;" d="M1713.095,199.163c-6.709-1.65-13.447-3.23-20.229-4.692
		C1699.649,195.931,1706.385,197.515,1713.095,199.163z"/>
	<path style="fill:#FABA66;" d="M1895.046,340.328c-153.716,13.722-285.329,111.11-435.765,140.229
		c-12.007,38.988-36.249,81.55-70.632,122.847c-0.022,0.027-0.046,0.054-0.069,0.08c13.938-2.612,27.835-5.435,41.681-8.488
		c121.519-26.797,235.672-71.221,349.773-119.898c37.654-16.064,75.989-31.416,115.012-43.868V340.328z"/>
	<path style="fill:#FABA66;" d="M973.535,614.884c23.564-58.711,72.618-123.366,140.564-178.618
		c10.665-8.673,21.471-16.792,32.339-24.449c0.054-0.038,0.107-0.072,0.16-0.109c-24.141-20.517-45.116-44.593-63.372-70.675
		c-0.016-0.024-0.036-0.047-0.052-0.071c-27.758,22.673-53.749,47.413-77.844,73.907c-0.081,0.089-0.162,0.178-0.243,0.267
		c-3.843,4.23-7.637,8.504-11.38,12.825c-0.018,0.02-0.035,0.04-0.053,0.06c-40.618,46.895-75.347,99.028-102.936,155.312
		c0.033,0.019,0.069,0.037,0.103,0.056c12.93,7.492,26.533,13.988,40.896,19.253C945.439,607.672,959.413,611.631,973.535,614.884z"
		/>
	<path style="fill:#FABA66;" d="M1895.046,547.971c-195.007,51.989-380.303,137.755-579.95,172.552
		c-26.353,4.593-52.798,8.224-79.294,10.857c-107.71,61.697-213.935,71.775-258.052,17.522
		c-7.419-9.122-12.625-19.634-15.885-31.183c-25.415-5.141-50.704-11.021-75.808-17.121c-12.454-3.026-25.016-6.314-37.423-10.154
		c-0.03-0.01-0.06-0.017-0.09-0.026c-0.839,2.756-1.572,5.557-2.38,8.327c-0.745,2.561-1.482,5.126-2.199,7.698
		c-1.164,4.177-2.31,8.362-3.4,12.568c-0.606,2.337-1.169,4.689-1.751,7.034c-1.842,7.412-3.568,14.868-5.177,22.369
		c-0.605,2.822-1.23,5.635-1.802,8.469c-0.784,3.883-1.518,7.785-2.24,11.691c-0.619,3.348-1.211,6.707-1.783,10.07
		c-0.613,3.603-1.234,7.201-1.792,10.821c-0.997,6.449-1.929,12.919-2.755,19.424c-0.332,2.632-0.601,5.284-0.905,7.926
		c-0.556,4.806-1.084,9.62-1.544,14.454c-0.278,2.907-0.533,5.819-0.776,8.736c-0.424,5.112-0.791,10.241-1.109,15.381
		c-0.143,2.32-0.319,4.631-0.44,6.957c-0.377,7.17-0.647,14.369-0.814,21.591c-0.015,0.663-0.061,1.317-0.075,1.98
		c0.016,0.004,0.034,0.007,0.05,0.01c14.475,2.919,28.966,5.73,43.451,8.377c80.599,14.736,162.808,24.57,244.857,23.593
		c138.535-1.651,274.38-34.391,404.137-81.321c103.393-37.394,201.818-86.236,303.379-128.059
		c26.156-10.771,53.477-21.468,81.575-31.444V547.971z"/>
	<path style="fill:#FABA66;" d="M1895.046,1332.716c-34.419-11.502-68.573-23.758-102.632-36.296
		c-137.104,13.776-274.362,21.297-411.899,24.02c-0.075,0.002-0.148,0.002-0.224,0.003c99.01,1.425,197.941,19.484,290.303,53.627
		c71.081,26.277,137.503,64.279,208.741,89.581c5.08,1.804,10.352,3.619,15.71,5.464V1332.716z"/>
	<path style="fill:#FABA66;" d="M1023.654,1384.273c47.351-14.896,95.715-28.69,143.954-40.403
		c51.499-12.505,104.335-19.991,157.497-22.592c-76.997,0.819-154.084,0.257-231.288-1.541
		c-48.213-1.123-96.417-2.498-144.621-3.897c-2.595-3.693-5.197-7.381-7.727-11.122c-1.923-2.844-3.781-5.732-5.663-8.603
		c-1.61-2.458-3.225-4.914-4.808-7.392c-2.184-3.422-4.323-6.874-6.451-10.335c-0.568-0.925-1.128-1.857-1.692-2.786
		c0.564,0.929,1.123,1.86,1.692,2.786c-0.568-0.925-1.128-1.857-1.692-2.786c-0.564-0.929-1.132-1.855-1.692-2.786
		c-2.307-3.831-4.594-7.674-6.83-11.551c-0.567-0.982-1.113-1.975-1.674-2.959c-2.247-3.94-4.526-7.858-6.702-11.845
		c0.023-0.007,0.046-0.016,0.066-0.023c-0.041-0.077-0.08-0.154-0.121-0.23c-0.214,0.076-0.426,0.154-0.639,0.23
		c-0.022,0.008-0.045,0.016-0.067,0.023c2.183,4.003,4.472,7.939,6.73,11.895c0.549,0.962,1.083,1.934,1.637,2.893
		c2.24,3.884,4.53,7.733,6.84,11.57c1.121,1.86,2.245,3.717,3.381,5.566c2.129,3.464,4.272,6.919,6.458,10.344
		c1.575,2.468,3.181,4.911,4.784,7.357c1.89,2.883,3.755,5.783,5.686,8.637c3.516,5.201,7.093,10.358,10.741,15.461
		c1.083,1.516,2.197,3.008,3.292,4.514c3.039,4.184,6.106,8.346,9.232,12.461c1.031,1.358,2.072,2.709,3.112,4.06
		c3.562,4.621,7.169,9.207,10.838,13.74c0.551,0.682,1.095,1.368,1.648,2.047c9.096,11.152,18.507,22.038,28.235,32.629
		C1013.1,1387.75,1018.378,1385.932,1023.654,1384.273z"/>
	<path style="fill:#FABA66;" d="M1726.346,1518.201c-79.81-31.125-161.631-52.662-247.456-57.126
		c-84.369-4.39-168.654,4.861-251.661,19.445c-30.99,5.445-61.728,12.459-92.592,18.624c7.211,4.897,14.515,9.667,21.909,14.307
		c0.033,0.021,0.066,0.042,0.1,0.063c14.683,9.212,29.724,17.907,45.091,26.07c0.273,0.145,0.547,0.289,0.821,0.433
		c15.068,7.98,30.456,15.435,46.133,22.357c0.69,0.305,1.382,0.605,2.073,0.907c15.27,6.685,30.817,12.85,46.615,18.488
		c1.182,0.421,2.367,0.834,3.552,1.251c15.37,5.395,30.98,10.278,46.806,14.642c1.673,0.462,3.351,0.911,5.03,1.361
		c7.41,1.986,14.858,3.882,22.361,5.636c0.441,0.104,0.877,0.219,1.319,0.321c7.723,1.791,15.51,3.414,23.326,4.954
		c2.051,0.404,4.106,0.794,6.164,1.181c7.244,1.361,14.517,2.636,21.835,3.78c0.722,0.112,1.437,0.247,2.161,0.358
		c7.79,1.193,15.634,2.215,23.503,3.156c2.246,0.268,4.494,0.523,6.746,0.771c7.42,0.817,14.866,1.55,22.353,2.139
		c0.674,0.053,1.342,0.128,2.017,0.179c8.006,0.609,16.061,1.039,24.138,1.385c2.195,0.093,4.393,0.176,6.592,0.25
		c8.118,0.273,16.256,0.463,24.44,0.466c0.092,0,0.182,0.006,0.275,0.006c0.022,0,0.045-0.001,0.068-0.001
		c6.435,0,12.85-0.086,19.244-0.255c0.776-0.021,1.544-0.065,2.319-0.088c5.639-0.167,11.268-0.375,16.874-0.67
		c0.903-0.047,1.801-0.12,2.704-0.172c5.498-0.31,10.986-0.659,16.449-1.091c0.759-0.06,1.51-0.139,2.268-0.201
		c5.625-0.463,11.237-0.973,16.824-1.563c0.545-0.057,1.085-0.128,1.63-0.187c5.827-0.63,11.638-1.316,17.422-2.084
		c0.259-0.034,0.518-0.074,0.778-0.109c68.87-9.22,134.666-28.147,195.983-55.341
		C1797.365,1546.66,1761.694,1531.986,1726.346,1518.201z"/>
	<path style="fill:#FABA66;" d="M1568.71,1090.88L1568.71,1090.88c0.628-0.115,1.252-0.226,1.879-0.341
		c75.979-13.935,150.13-28.503,221.93-43.501c-0.042-0.044-0.085-0.087-0.125-0.131c-71.997,15.045-146.365,29.655-222.566,43.631
		c-0.628,0.114-1.251,0.226-1.879,0.341c0.112,0.025,0.222,0.052,0.334,0.077C1568.426,1090.932,1568.568,1090.907,1568.71,1090.88z
		"/>
	<path style="fill:#FABA66;" d="M1895.046,791.677c-87.491,24.832-171.246,60.178-255.82,95.746
		c-115.179,48.44-228.865,90.837-353.124,109.087c-106.882,15.697-216.106,20.155-323.908,12.546
		c-45.231-3.192-93.078-7.934-139.198-18.432c-0.048-0.011-0.095-0.019-0.143-0.03c3.676,29.69,9.24,58.787,16.412,87.245
		c189.228-19.228,440.914-55.915,715.767-106.324c119.382-21.895,233.759-44.659,340.014-67.436V791.677z"/>
	<path style="fill:#FABA66;" d="M1708.418,1127.362c15.503,4.404,31.022,8.874,46.579,13.364c6.83,1.971,13.675,3.905,20.534,5.798
		c-6.859-1.893-13.703-3.827-20.534-5.798C1739.44,1136.236,1723.921,1131.766,1708.418,1127.362z"/>
	<path style="fill:#FABA66;" d="M1273.935,346.168c75.528-24.639,141.584-19.54,174.035,20.365c0.071,0.087,0.128,0.182,0.198,0.269
		c0.013,0.017,0.023,0.033,0.036,0.049c96.144-20.69,191.298-80.14,279.546-107.181c34.318-10.515,70.034-17.335,105.913-19.221
		c-44.723-19.915-91.839-35.424-140.797-45.978c-0.262-0.057-0.523-0.115-0.785-0.171c-5.71-1.224-11.447-2.372-17.205-3.46
		c-0.511-0.097-1.02-0.199-1.531-0.294c-5.511-1.029-11.047-1.984-16.602-2.887c-0.738-0.12-1.472-0.249-2.212-0.367
		c-5.341-0.851-10.706-1.629-16.086-2.363c-0.934-0.127-1.865-0.268-2.801-0.392c-5.229-0.692-10.483-1.309-15.748-1.889
		c-1.066-0.117-2.126-0.252-3.194-0.365c-5.142-0.543-10.306-1.007-15.479-1.443c-1.195-0.1-2.384-0.224-3.58-0.318
		c-5.162-0.408-10.348-0.734-15.54-1.034c-1.191-0.068-2.374-0.163-3.567-0.227c-5.417-0.284-10.857-0.485-16.306-0.65
		c-0.968-0.03-1.929-0.085-2.898-0.11c-6.403-0.169-12.826-0.256-19.271-0.256c-0.023,0-0.046-0.001-0.068-0.001
		c-0.151,0-0.299,0.008-0.451,0.008c-7.152,0.004-14.272,0.143-21.374,0.354c-2.44,0.072-4.87,0.181-7.304,0.278
		c-4.95,0.196-9.888,0.442-14.813,0.737c-2.644,0.159-5.288,0.315-7.925,0.502c-5.384,0.383-10.748,0.839-16.098,1.339
		c-1.874,0.174-3.76,0.31-5.629,0.5c-6.765,0.685-13.497,1.484-20.207,2.355c-2.872,0.373-5.726,0.795-8.588,1.201
		c-4.172,0.592-8.333,1.212-12.481,1.874c-3.13,0.5-6.253,1.012-9.369,1.552c-4.057,0.704-8.096,1.462-12.13,2.232
		c-2.935,0.561-5.88,1.091-8.802,1.687c-6.218,1.268-12.405,2.623-18.566,4.05c-3.309,0.766-6.593,1.6-9.884,2.412
		c-3.403,0.839-6.802,1.687-10.186,2.574c-3.52,0.924-7.028,1.874-10.527,2.849c-3.116,0.868-6.216,1.771-9.315,2.68
		c-3.562,1.045-7.13,2.076-10.669,3.174c-2.984,0.925-5.939,1.916-8.907,2.88c-6.521,2.116-13.001,4.32-19.439,6.614
		c-2.557,0.912-5.118,1.814-7.661,2.754c-3.84,1.419-7.659,2.879-11.469,4.36c-2.37,0.922-4.73,1.863-7.088,2.81
		c-3.939,1.58-7.875,3.165-11.779,4.813c-1.389,0.586-2.759,1.204-4.143,1.799c-8.379,3.597-16.672,7.35-24.886,11.252
		c-1.43,0.679-2.87,1.342-4.295,2.03c-4.151,2.006-8.267,4.067-12.374,6.149c-1.667,0.847-3.331,1.699-4.992,2.557
		c-4.21,2.177-8.408,4.375-12.569,6.632c-0.726,0.393-1.443,0.802-2.167,1.198c-4.39,2.4-8.795,4.774-13.129,7.261
		c0.017,0.017,0.033,0.033,0.05,0.05C1208.308,302.545,1239.286,327.882,1273.935,346.168z"/>
	<path style="fill:#5EBFBD;" d="M1895.046,904.078c-106.255,22.777-220.632,45.541-340.014,67.436
		c-274.854,50.409-526.539,87.096-715.767,106.324c-175.429,17.825-297.128,20.634-333.727,5.423
		c-6.77-2.815-10.684-6.234-11.431-10.301c-4.584-24.993,109.249-69.244,296.755-120.505c9.143-2.499,18.479-5.017,27.966-7.548
		c-0.874-14.554-1.372-29.209-1.372-43.982c0-1.526,0.049-3.041,0.059-4.564c-10.605,2.985-21.107,5.969-31.445,8.951
		c-0.096,0.028-0.189,0.056-0.286,0.083c-8.404,2.425-16.701,4.849-24.922,7.271c-1.881,0.554-3.734,1.107-5.605,1.66
		c-6.489,1.922-12.927,3.84-19.299,5.758c-2.233,0.673-4.453,1.344-6.672,2.015c-6.108,1.85-12.156,3.696-18.151,5.541
		c-2.079,0.64-4.164,1.28-6.23,1.919c-6.528,2.021-12.979,4.039-19.37,6.055c-1.373,0.433-2.766,0.866-4.132,1.298
		c-15.711,4.975-30.994,9.931-45.835,14.864c-1.358,0.451-2.684,0.9-4.035,1.35c-5.893,1.968-11.721,3.932-17.471,5.89
		c-1.916,0.654-3.809,1.305-5.709,1.956c-5.178,1.777-10.3,3.552-15.359,5.321c-1.964,0.686-3.925,1.373-5.87,2.059
		c-5.153,1.817-10.231,3.628-15.255,5.435c-1.618,0.583-3.256,1.166-4.861,1.747c-6.181,2.239-12.27,4.471-18.246,6.696
		c-0.336,0.125-0.687,0.25-1.023,0.376c-6.527,2.433-12.925,4.856-19.201,7.269c-0.783,0.301-1.536,0.599-2.315,0.9
		c-5.223,2.016-10.362,4.025-15.404,6.026c-1.629,0.645-3.219,1.288-4.829,1.932c-4.183,1.675-8.313,3.343-12.367,5.007
		c-1.744,0.715-3.474,1.43-5.195,2.142c-3.904,1.619-7.739,3.232-11.521,4.84c-1.618,0.688-3.249,1.377-4.845,2.063
		c-4.137,1.778-8.178,3.548-12.16,5.312c-1.069,0.472-2.172,0.951-3.23,1.423c-5.108,2.281-10.1,4.551-14.94,6.806
		c-0.064,0.03-0.123,0.059-0.187,0.088c-4.626,2.157-9.106,4.298-13.484,6.427c-1.293,0.629-2.531,1.253-3.802,1.879
		c-3.125,1.54-6.203,3.076-9.195,4.603c-1.44,0.734-2.846,1.465-4.254,2.196c-2.763,1.435-5.466,2.862-8.109,4.283
		c-1.358,0.73-2.713,1.46-4.037,2.185c-2.695,1.477-5.299,2.943-7.859,4.403c-1.103,0.629-2.238,1.264-3.317,1.89
		c-3.28,1.907-6.451,3.801-9.497,5.68c-0.256,0.157-0.535,0.317-0.789,0.475c-3.31,2.052-6.459,4.084-9.484,6.102
		c-0.805,0.536-1.544,1.064-2.327,1.598c-2.14,1.457-4.23,2.907-6.217,4.344c-0.953,0.691-1.859,1.374-2.777,2.06
		c-1.716,1.28-3.377,2.554-4.969,3.819c-0.893,0.711-1.772,1.419-2.626,2.126c-1.524,1.258-2.969,2.506-4.366,3.747
		c-0.745,0.662-1.509,1.326-2.217,1.983c-1.507,1.398-2.9,2.782-4.242,4.158c-0.457,0.47-0.965,0.945-1.404,1.411
		c-1.719,1.83-3.294,3.641-4.712,5.431c-0.298,0.379-0.531,0.746-0.817,1.122c-1.066,1.404-2.065,2.799-2.943,4.175
		c-0.386,0.609-0.708,1.208-1.058,1.811c-0.659,1.137-1.273,2.267-1.799,3.386c-0.303,0.644-0.572,1.284-0.829,1.922
		c-0.436,1.077-0.8,2.143-1.107,3.2c-0.18,0.62-0.364,1.239-0.5,1.854c-0.246,1.114-0.385,2.214-0.484,3.308
		c-0.046,0.518-0.138,1.041-0.151,1.553c-0.041,1.59,0.042,3.16,0.325,4.7c0.579,3.159,1.911,6.158,3.825,9.026
		c52.264,78.308,594.788,48.529,1243.502-70.447c113.037-20.731,222.066-42.854,325.218-65.734V904.078z"/>
	<path style="fill:none;stroke:#FEDCA9;stroke-width:0;stroke-linecap:round;stroke-linejoin:round;" d="M922.855,1275.601
		c0.564,0.929,1.123,1.86,1.692,2.786"/>
	<path style="fill:#F39200;" d="M1848.873,1077.731c6.77,2.206,13.452,4.127,19.764,5.89c8.781,2.451,17.587,4.502,26.41,6.274
		v-64.931c-33.376,7.4-67.342,14.723-101.891,21.942c11.92,12.535,28.562,20.991,45.532,27.289
		C1842.081,1075.456,1845.488,1076.629,1848.873,1077.731z"/>
	<path style="fill:#F39200;" d="M1895.046,1174.198c-12.223-2.233-24.424-4.605-36.579-7.215
		c-27.843-5.979-55.501-12.888-82.936-20.459c-6.859-1.893-13.703-3.827-20.534-5.797c-15.557-4.49-31.076-8.961-46.578-13.364
		s-30.99-8.738-46.484-12.958c-30.989-8.438-62.003-16.41-93.224-23.525c-0.143,0.026-0.285,0.05-0.427,0.076
		c-254.325,46.579-492.219,79.427-690.58,97.422c8.57,19.745,17.965,39.047,28.199,57.829c0.041,0.076,0.08,0.153,0.122,0.23
		c102.791-36.762,202.904-76.501,314.562-82.568c125.072-6.795,247.605,20.314,365.955,58.553
		c69.586,22.483,137.869,48.684,206.48,73.941c34.018-3.422,68.025-7.26,102.026-11.465V1174.198z"/>
	<path style="fill:#D67A0F;" d="M912.659,1258.306c0.562,0.984,1.108,1.977,1.674,2.959c2.236,3.877,4.523,7.72,6.83,11.551
		c0.56,0.932,1.128,1.857,1.692,2.786c0.564,0.929,1.124,1.86,1.692,2.786c2.127,3.461,4.266,6.913,6.451,10.335
		c1.582,2.478,3.198,4.934,4.808,7.392c1.883,2.872,3.74,5.76,5.663,8.603c2.53,3.741,5.132,7.429,7.727,11.122
		c48.204,1.4,96.408,2.775,144.621,3.897c77.205,1.798,154.291,2.36,231.288,1.541c0.279-0.003,0.559-0.002,0.839-0.005
		c18.167-0.888,36.37-1.083,54.571-0.832c137.537-2.723,274.795-10.245,411.899-24.02c0.201-0.021,0.403-0.037,0.605-0.057
		c-68.61-25.258-136.894-51.458-206.48-73.941c-118.35-38.24-240.882-65.349-365.955-58.554
		c-111.657,6.067-211.77,45.807-314.562,82.569c-0.02,0.008-0.043,0.016-0.066,0.023
		C908.132,1250.448,910.411,1254.366,912.659,1258.306z"/>
	<path style="fill:#D67A0F;" d="M1895.046,1089.895c-8.823-1.772-17.628-3.823-26.41-6.274c-6.312-1.763-12.994-3.684-19.764-5.89
		c-3.385-1.102-6.792-2.276-10.186-3.535c-16.97-6.299-33.612-14.754-45.532-27.289c-0.21,0.045-0.426,0.088-0.636,0.132
		c-71.801,14.997-145.952,29.565-221.931,43.5c-0.627,0.115-1.251,0.226-1.879,0.342c31.222,7.115,62.235,15.087,93.224,23.525
		c15.493,4.219,30.981,8.555,46.484,12.958s31.021,8.873,46.578,13.364c6.831,1.97,13.675,3.904,20.534,5.797
		c27.435,7.571,55.093,14.48,82.936,20.459c12.155,2.61,24.356,4.982,36.579,7.215V1089.895z"/>
	<path style="fill:#FFEED8;" d="M1082.177,627.241c-36.552-0.934-73.124-4.139-108.666-12.3
		c-15.323,38.201-19.808,73.852-11.649,102.769c19.686,3.977,39.439,7.584,59.26,10.367c71.524,10.041,143.328,10.394,214.739,3.272
		c25.438-14.577,50.958-32.009,75.76-52.179c29.369-23.881,55.172-49.526,76.959-75.684c0.023-0.027,0.048-0.054,0.07-0.081
		C1287.79,622.342,1184.745,629.861,1082.177,627.241z"/>
	<path style="fill:#FFEED8;" d="M1298.105,357.732c-8.337-3.386-16.407-7.323-24.349-11.51
		c-40.894,13.363-84.549,35.487-127.159,65.486c-0.053,0.037-0.106,0.071-0.16,0.109c14.711,12.49,30.592,23.664,47.764,33.146
		c73.033,40.328,160.447,51.246,242.213,39.473c7.686-1.106,15.302-2.464,22.888-3.937c13.936-45.291,11.381-85.731-11.098-113.649
		c-0.013-0.016-0.023-0.032-0.036-0.049C1398.139,377.603,1347.84,377.93,1298.105,357.732z"/>
</g>
<g>
	<path style="fill:#5EBFBD;" d="M764.226,2006.922l-57.242-144.057l-0.076,0.075c-4.268-10.939-10.799-21.199-19.634-30.034
		c-13.633-13.633-30.654-21.734-48.349-24.494l-49.969,49.97l0,0l-16.894,16.894l-33.076,33.075
		c2.76,17.694,10.861,34.715,24.494,48.348c8.834,8.835,19.095,15.367,30.034,19.635l-0.076,0.076l144.057,57.242
		C754.272,2040.318,770.892,2023.698,764.226,2006.922z M611.159,1939.575c-0.921-0.443-1.862-0.853-2.822-1.227
		c-6.03-2.353-11.421-5.88-16.024-10.483c-18.231-18.232-18.231-47.896,0-66.126c18.23-18.231,47.894-18.233,66.126-0.001
		c4.603,4.602,8.13,9.994,10.482,16.025c0.378,0.963,0.789,1.908,1.231,2.833l38.892,97.873L611.159,1939.575z"/>
	<path style="fill:#93D0CF;" d="M668.921,1877.764c-2.352-6.031-5.879-11.422-10.482-16.025
		c-18.232-18.232-47.896-18.23-66.126,0.001c-18.231,18.23-18.231,47.894,0,66.126c4.603,4.603,9.994,8.13,16.024,10.483
		c0.96,0.374,1.901,0.784,2.822,1.227l97.885,38.894l-38.892-97.873C669.71,1879.672,669.299,1878.727,668.921,1877.764z
		 M622.455,1913.526c-1.258-0.58-2.542-1.126-3.826-1.626c-2.363-0.921-4.415-2.265-6.25-4.1c-7.167-7.166-7.165-18.827,0-25.992
		c7.167-7.168,18.827-7.168,25.994-0.002c1.837,1.837,3.18,3.889,4.11,6.272c0.5,1.279,1.039,2.547,1.611,3.791l14.277,35.928
		L622.455,1913.526z"/>
	<path style="fill:#A7D9E3;" d="M642.483,1888.078c-0.93-2.383-2.273-4.435-4.11-6.272c-7.167-7.166-18.827-7.166-25.994,0.002
		c-7.165,7.165-7.167,18.827,0,25.992c1.835,1.835,3.887,3.179,6.25,4.1c1.284,0.5,2.568,1.046,3.826,1.626l35.916,14.272
		l-14.277-35.928C643.522,1890.625,642.983,1889.356,642.483,1888.078z"/>
	<path style="fill:#4B2881;" d="M598.948,1705.004l141.164-41.034c14.371-4.177,13.759-24.745-0.836-28.059l-284.269-64.549
		c30.619,17.138,61.819,40.678,90.915,69.774C566.478,1661.691,584.238,1683.296,598.948,1705.004z"/>
	<path style="fill:#7B539D;" d="M276.854,1668.1c-0.614-2.039-1.228-4.08-1.773-6.095
		C275.626,1664.021,276.24,1666.061,276.854,1668.1z"/>
	<path style="fill:#7B539D;" d="M294.151,1711.035c-4.34-8.688-8.145-17.29-11.397-25.753
		C286.005,1693.745,289.813,1702.347,294.151,1711.035z"/>
	<path style="fill:#7B539D;" d="M269.865,1635.134c-0.22-1.924-0.439-3.846-0.583-5.734
		C269.426,1631.287,269.645,1633.21,269.865,1635.134z"/>
	<path style="fill:#7B539D;" d="M281.873,1682.965c-1.562-4.186-3.019-8.345-4.306-12.45
		C278.855,1674.62,280.312,1678.777,281.873,1682.965z"/>
	<path style="fill:#7B539D;" d="M268.94,1622.753c-0.009-0.323-0.026-0.65-0.032-0.971
		C268.915,1622.103,268.931,1622.43,268.94,1622.753z"/>
	<path style="fill:#7B539D;" d="M269.416,1607.856c0.023-0.236,0.04-0.477,0.064-0.712
		C269.455,1607.38,269.439,1607.62,269.416,1607.856z"/>
	<path style="fill:#7B539D;" d="M472.823,1891.288c-1.203-0.617-2.404-1.227-3.607-1.864c-0.134-0.07-0.267-0.147-0.399-0.218
		c-0.003-0.001-0.004-0.003-0.007-0.003c4.216,2.239,8.416,4.345,12.595,6.334c-1.211-0.577-2.423-1.157-3.639-1.755
		C476.121,1892.974,474.472,1892.135,472.823,1891.288z"/>
	<path style="fill:#7B539D;" d="M268.95,1615.171c0.008-0.273,0.01-0.552,0.021-0.824
		C268.96,1614.619,268.958,1614.898,268.95,1615.171z"/>
	<path style="fill:#7B539D;" d="M498.231,1902.928c-1.103-0.442-2.212-0.91-3.319-1.37c-1.678-0.697-3.356-1.406-5.041-2.145
		c-1.182-0.519-2.368-1.053-3.554-1.591c-0.398-0.181-0.798-0.374-1.197-0.557c-0.003-0.001-0.005-0.002-0.008-0.003
		c4.56,2.096,9.094,4.057,13.589,5.848c-0.003-0.002-0.004-0.002-0.006-0.003C498.54,1903.046,498.386,1902.991,498.231,1902.928z"
		/>
	<path style="fill:#7B539D;" d="M302.242,1726.268c-2.468-4.362-4.787-8.711-6.993-13.043
		C297.455,1717.558,299.775,1721.905,302.242,1726.268z"/>
	<path style="fill:#7B539D;" d="M503.745,1905.052c-0.999-0.375-2.005-0.772-3.008-1.158c-0.004-0.002-0.007-0.002-0.011-0.004
		c4.688,1.823,9.344,3.525,13.932,5.006c-2.701-0.872-5.425-1.816-8.164-2.807C505.582,1905.758,504.661,1905.395,503.745,1905.052z
		"/>
	<path style="fill:#7B539D;" d="M463.938,1886.554c-1.093-0.604-2.185-1.188-3.282-1.808c-1.853-1.049-3.709-2.151-5.566-3.246
		c3.963,2.339,7.918,4.569,11.862,6.695c-0.002-0.002-0.007-0.003-0.009-0.005C465.943,1887.643,464.942,1887.107,463.938,1886.554z
		"/>
	<path style="fill:#7B539D;" d="M388.763,1658.19l0.007,0.005c27.499-27.239,71.863-27.173,99.263,0.227
		c27.399,27.4,27.465,71.765,0.226,99.263l0.006,0.005l43.089,43.088l0,0l78.601-78.602c-3.445-5.72-7.127-11.449-11.006-17.173
		c-14.71-21.708-32.471-43.313-53.026-63.868c-29.096-29.096-60.296-52.636-90.915-69.774
		c-18.614-10.419-37.009-18.455-54.589-23.948l-61.215,61.215L388.763,1658.19z"/>
	<path style="fill:#7B539D;" d="M638.993,1784.562c-1.479-4.585-3.18-9.236-5.001-13.917
		C635.813,1775.326,637.514,1779.978,638.993,1784.562L638.993,1784.562z"/>
	<path style="fill:#7B539D;" d="M435.386,1869.038c2.882,1.95,5.766,3.852,8.65,5.693
		C441.152,1872.886,438.267,1870.988,435.386,1869.038L435.386,1869.038z"/>
	<path style="fill:#7B539D;" d="M452.286,1879.847c-2.681-1.614-5.363-3.276-8.047-4.989c2.807,1.788,5.612,3.536,8.414,5.22
		c-0.125-0.075-0.25-0.146-0.378-0.221L452.286,1879.847z"/>
	<path style="fill:#7B539D;" d="M627.375,1755.044c2.089,4.546,4.042,9.066,5.827,13.546
		C631.416,1764.11,629.463,1759.591,627.375,1755.044z"/>
	<path style="fill:#7B539D;" d="M619.315,1738.738c2.454,4.623,4.741,9.225,6.894,13.803
		C624.056,1747.963,621.769,1743.363,619.315,1738.738z"/>
	<path style="fill:#7B539D;" d="M609.96,1722.187c2.943,4.884,5.684,9.757,8.303,14.616
		C615.644,1731.944,612.903,1727.071,609.96,1722.187z"/>
	<path style="fill:#4B2881;" d="M274.721,1660.589c0.125,0.474,0.231,0.941,0.36,1.416c0.544,2.015,1.158,4.056,1.773,6.095
		c0.227,0.745,0.416,1.479,0.65,2.228c-0.001-0.002-0.001-0.003-0.001-0.003C276.478,1667.047,275.569,1663.806,274.721,1660.589z"
		/>
	<path style="fill:#4B2881;" d="M269.491,1607.02c0.003-0.026,0.007-0.052,0.009-0.077
		C269.498,1606.969,269.494,1606.994,269.491,1607.02z"/>
	<path style="fill:#4B2881;" d="M268.974,1614.193c0.002-0.016,0.003-0.032,0.003-0.049
		C268.977,1614.16,268.976,1614.177,268.974,1614.193z"/>
	<path style="fill:#4B2881;" d="M268.901,1621.608c0-0.007,0-0.014,0-0.022C268.901,1621.593,268.901,1621.601,268.901,1621.608z"/>
	<path style="fill:#4B2881;" d="M270.686,1641.177c0.104,0.674,0.198,1.345,0.309,2.024c0.117,0.713,0.206,1.415,0.334,2.132
		c0.133,0.753,0.312,1.524,0.457,2.281C271.373,1645.448,271.012,1643.305,270.686,1641.177z"/>
	<path style="fill:#4B2881;" d="M272.456,1650.942c0.027,0.138,0.053,0.272,0.081,0.41c0.16,0.747,0.289,1.484,0.457,2.236
		c0.297,1.319,0.656,2.662,0.986,3.994C273.431,1655.353,272.916,1653.138,272.456,1650.942z"/>
	<path style="fill:#4B2881;" d="M269.266,1629.251c0.001-0.001,0.001-0.001,0.001-0.001c-0.001-0.008-0.001-0.018-0.001-0.027
		c0.004,0.059,0.011,0.118,0.016,0.176c0.144,1.888,0.363,3.81,0.583,5.734c0.082,0.713,0.132,1.411,0.225,2.129
		c0.042,0.324,0.106,0.659,0.149,0.984C269.831,1635.209,269.488,1632.201,269.266,1629.251z"/>
	<path style="fill:#4B2881;" d="M482.673,1896.127c0.814,0.384,1.626,0.761,2.439,1.135c0.003,0.002,0.005,0.002,0.008,0.003
		C484.304,1896.891,483.49,1896.512,482.673,1896.127z"/>
	<path style="fill:#4B2881;" d="M466.944,1888.189c0.003,0.002,0.007,0.003,0.009,0.005c0.619,0.333,1.238,0.682,1.856,1.01
		c0.003,0.001,0.004,0.002,0.007,0.003C468.194,1888.876,467.568,1888.529,466.944,1888.189z"/>
	<path style="fill:#4B2881;" d="M577.064,1846.49l61.896-61.897v0.001l0.033-0.032l0,0c-1.479-4.584-3.18-9.236-5.001-13.917
		c-0.267-0.687-0.518-1.366-0.792-2.054c-1.785-4.48-3.738-9-5.827-13.546c-0.384-0.834-0.771-1.667-1.166-2.503
		c-2.153-4.578-4.439-9.18-6.894-13.803c-0.341-0.644-0.705-1.29-1.053-1.935c-2.619-4.859-5.36-9.732-8.303-14.616
		c-0.002-0.004-0.003-0.007-0.006-0.01l0,0l-78.601,78.602L577.064,1846.49z"/>
	<path style="fill:#4B2881;" d="M498.695,1903.107c0.002,0.001,0.003,0.001,0.006,0.003c0.678,0.269,1.348,0.516,2.025,0.779
		c0.004,0.002,0.007,0.003,0.011,0.004C500.058,1903.631,499.378,1903.379,498.695,1903.107z"/>
	<path style="fill:#593F92;" d="M400.118,1669.543c21.206-21.206,55.587-21.205,76.792,0.001c21.206,21.205,21.206,55.585,0,76.792
		l11.349,11.349c27.239-27.499,27.173-71.864-0.226-99.263c-27.399-27.4-71.764-27.465-99.263-0.227L400.118,1669.543
		L400.118,1669.543z"/>
	<path style="fill:#75C5BF;" d="M258.418,1586.459c-0.854-1.383-1.685-2.772-2.433-4.174
		C256.734,1583.687,257.564,1585.075,258.418,1586.459z"/>
	<path style="fill:#75C5BF;" d="M251.329,1571.423c-0.482-1.452-0.937-2.905-1.306-4.351
		C250.392,1568.518,250.845,1569.971,251.329,1571.423z"/>
	<path style="fill:#75C5BF;" d="M252.265,1536.038c0.214-0.426,0.382-0.878,0.613-1.295
		C252.647,1535.16,252.479,1535.612,252.265,1536.038z"/>
	<path style="fill:#75C5BF;" d="M249.808,1566.044c-0.317-1.341-0.622-2.681-0.839-4.009
		C249.185,1563.362,249.49,1564.703,249.808,1566.044z"/>
	<path style="fill:#75C5BF;" d="M255.596,1581.481c-0.73-1.411-1.438-2.826-2.061-4.249
		C254.158,1578.655,254.866,1580.07,255.596,1581.481z"/>
	<path style="fill:#75C5BF;" d="M253.295,1576.615c-0.635-1.487-1.234-2.976-1.749-4.465
		C252.061,1573.639,252.66,1575.128,253.295,1576.615z"/>
	<path style="fill:#75C5BF;" d="M248.83,1560.841c-0.177-1.261-0.353-2.522-0.437-3.764
		C248.477,1558.318,248.652,1559.579,248.83,1560.841z"/>
	<path style="fill:#75C5BF;" d="M249.237,1544.792c0.122-0.582,0.2-1.183,0.349-1.754
		C249.437,1543.608,249.361,1544.21,249.237,1544.792z"/>
	<path style="fill:#75C5BF;" d="M250.759,1539.431c0.082-0.219,0.131-0.453,0.218-0.67
		C250.891,1538.978,250.841,1539.212,250.759,1539.431z"/>
	<path style="fill:#75C5BF;" d="M248.496,1549.885c0.065-0.781,0.091-1.577,0.199-2.344
		C248.587,1548.308,248.563,1549.103,248.496,1549.885z"/>
	<path style="fill:#75C5BF;" d="M248.357,1555.286c-0.033-1.021-0.09-2.049-0.059-3.052
		C248.267,1553.237,248.324,1554.264,248.357,1555.286z"/>
	<path style="fill:#75C5BF;" d="M261.613,1591.23c-0.947-1.311-1.876-2.628-2.725-3.965
		C259.736,1588.603,260.666,1589.919,261.613,1591.23z"/>
	<path style="fill:#75C5BF;" d="M255.09,1531.34c0.074-0.1,0.127-0.211,0.201-0.31C255.218,1531.129,255.164,1531.24,255.09,1531.34
		z"/>
	<path style="fill:#75C5BF;" d="M269.236,1600.323c-1.098-1.138-2.192-2.278-3.208-3.453
		C267.042,1598.045,268.138,1599.184,269.236,1600.323z"/>
	<path style="fill:#75C5BF;" d="M265.219,1595.861c-1.027-1.228-2.046-2.462-2.981-3.722
		C263.175,1593.399,264.192,1594.632,265.219,1595.861z"/>
	<path style="fill:#75C5BF;" d="M301.157,1570.582l30.827-30.827l0.044-0.042c-23.71-23.71-56.751-29.109-73.801-12.06
		L301.157,1570.582z"/>
	<path style="fill:#241F48;" d="M514.658,1908.896c1.643,1.642,3.54,2.873,5.565,3.694
		C518.198,1911.769,516.301,1910.537,514.658,1908.896L514.658,1908.896z"/>
	<path style="fill:#241F48;" d="M538.444,1908.895c-1.642,1.642-3.541,2.874-5.564,3.694
		C534.903,1911.769,536.802,1910.537,538.444,1908.895l0.542-0.543l33.076-33.075L538.444,1908.895z"/>
	<path style="fill:#FFFFFF;" d="M435.367,1691.277c10.295-1.304,18.251-5.426,17.771-9.207c-0.478-3.782-9.211-5.79-19.505-4.487
		c-9.109,1.154-16.361,4.515-17.583,7.892l5.285,5.285C424.918,1691.706,429.899,1691.969,435.367,1691.277z"/>
	<path style="fill:#241F48;" d="M371.233,1815.826c-28.553-28.553-51.747-59.134-68.799-89.2l64.499,284.051
		c0.399,1.759,1.058,3.306,1.915,4.641c5.989,9.349,21.609,8.286,25.132-3.835l41.406-142.444l0,0
		C413.582,1854.291,391.878,1836.47,371.233,1815.826z"/>
	<path style="fill:#7B539D;" d="M270.244,1601.408c-0.093,0.566-0.181,1.133-0.263,1.705c0.081-0.571,0.176-1.135,0.267-1.7
		C270.247,1601.411,270.245,1601.41,270.244,1601.408z"/>
	<path style="fill:#4B2881;" d="M531.353,1800.779l-43.089-43.088c-0.079,0.08-0.152,0.165-0.232,0.244
		c-27.479,27.481-72.034,27.48-99.513,0c-27.479-27.48-27.479-72.032,0-99.513c0.08-0.079,0.163-0.152,0.244-0.231l-49.56-49.561
		l61.215-61.215l0.007-0.007c-24.714-8.522-48.251-11.039-68.442-7.652l-30.827,30.827l38.047,38.047l-61.7,61.7
		c0.019,0.061,0.045,0.125,0.064,0.186c1.287,4.105,2.744,8.264,4.306,12.45c0.289,0.771,0.585,1.543,0.881,2.317
		c3.252,8.463,7.057,17.066,11.397,25.753c0.365,0.731,0.725,1.459,1.098,2.19c2.206,4.332,4.525,8.681,6.993,13.043
		c0.066,0.119,0.124,0.238,0.192,0.357c17.052,30.067,40.246,60.648,68.799,89.2c20.645,20.644,42.349,38.465,64.153,53.212
		c2.882,1.95,5.766,3.848,8.65,5.693c0.068,0.043,0.136,0.083,0.203,0.127c2.684,1.713,5.365,3.375,8.047,4.989L531.353,1800.779z"
		/>
	<path style="fill:#7B539D;" d="M277.503,1670.325c-4.483-14.346-7.264-28.148-8.236-41.075c0.222,2.95,0.565,5.958,0.973,8.997
		c-0.043-0.325-0.107-0.66-0.149-0.984c0.059,0.457,0.129,0.92,0.192,1.379c0.091,0.66,0.214,1.335,0.314,1.999
		c0.127,0.85,0.259,1.702,0.4,2.559c-0.112-0.678-0.205-1.349-0.309-2.024c0.326,2.129,0.687,4.272,1.101,6.437
		c-0.146-0.757-0.324-1.528-0.457-2.281c0.159,0.9,0.356,1.815,0.532,2.722c0.182,0.937,0.38,1.879,0.577,2.822
		c0.034,0.159,0.064,0.316,0.098,0.475c-0.028-0.138-0.055-0.272-0.081-0.41c0.46,2.195,0.975,4.411,1.525,6.64
		c-0.33-1.332-0.689-2.675-0.986-3.994c0.327,1.453,0.714,2.929,1.079,4.397c0.215,0.868,0.42,1.731,0.648,2.604
		C275.569,1663.806,276.478,1667.047,277.503,1670.325z"/>
	<path style="fill:#241F48;" d="M339.204,1608.629l-38.047-38.047l-30.871,30.87c-0.012-0.012-0.024-0.026-0.038-0.039
		c-0.091,0.566-0.185,1.129-0.267,1.7c-0.021,0.142-0.046,0.282-0.067,0.425c-0.144,1.041-0.269,2.094-0.384,3.154
		c-0.01,0.084-0.021,0.167-0.03,0.25c-0.003,0.025-0.007,0.051-0.009,0.077c0,0.003-0.002,0.006-0.002,0.009
		c-0.004,0.038-0.005,0.078-0.009,0.116c-0.025,0.235-0.041,0.475-0.064,0.712c-0.077,0.81-0.153,1.622-0.215,2.442
		c-0.008,0.097-0.018,0.191-0.025,0.287c-0.08,1.121-0.142,2.252-0.19,3.391c-0.002,0.056-0.007,0.112-0.009,0.167
		c0,0.017-0.001,0.033-0.003,0.049c0,0.003,0,0.007,0,0.009c-0.002,0.048-0.002,0.097-0.004,0.145
		c-0.011,0.272-0.012,0.551-0.021,0.824c-0.027,0.847-0.054,1.694-0.064,2.551c0,0.052-0.003,0.104-0.003,0.157
		c-0.012,1.2-0.006,2.412,0.018,3.631c0,0.026,0,0.051,0,0.076c0,0.008,0,0.015,0,0.022c0,0.003,0,0.005,0,0.007
		c0.001,0.055,0.005,0.112,0.007,0.167c0.007,0.321,0.023,0.648,0.032,0.971c0.025,0.872,0.046,1.744,0.089,2.624
		c0,0.008,0,0.017,0,0.026c0.061,1.265,0.141,2.538,0.237,3.821c0,0.009,0,0.019,0.001,0.027c0,0,0,0-0.001,0.001
		c0.972,12.927,3.753,26.728,8.236,41.075c0,0,0,0.002,0.001,0.003L339.204,1608.629z"/>
	<path style="fill:#241F48;" d="M577.064,1846.49l11.893,11.892l49.969-49.97l0.035-0.035c6.568-6.568,6.568-17.217,0-23.784v-0.001
		L577.064,1846.49l-45.711-45.712l0,0l-79.067,79.068l-0.011,0.01c0.128,0.076,0.253,0.147,0.378,0.221
		c0.021,0.012,0.041,0.023,0.06,0.036c0.794,0.476,1.585,0.918,2.377,1.386c1.856,1.096,3.713,2.198,5.566,3.246
		c1.097,0.62,2.189,1.204,3.282,1.808c1.004,0.553,2.005,1.089,3.005,1.635c0.624,0.34,1.251,0.687,1.872,1.018
		c0.132,0.071,0.266,0.147,0.399,0.218c1.204,0.637,2.405,1.246,3.607,1.864c1.649,0.847,3.298,1.686,4.943,2.495
		c1.216,0.598,2.428,1.178,3.639,1.755c0.003,0.002,0.005,0.003,0.008,0.005c0.421,0.2,0.84,0.388,1.26,0.585
		c0.817,0.384,1.631,0.764,2.447,1.138c0.399,0.184,0.799,0.377,1.197,0.557c1.186,0.538,2.372,1.072,3.554,1.591
		c1.686,0.739,3.364,1.448,5.041,2.145c1.107,0.46,2.215,0.928,3.319,1.37c0.155,0.063,0.309,0.117,0.464,0.179
		c0.682,0.272,1.362,0.524,2.042,0.786c1.003,0.386,2.009,0.783,3.008,1.158c0.915,0.343,1.837,0.707,2.749,1.037
		c2.739,0.991,5.462,1.934,8.164,2.807L577.064,1846.49z"/>
	<path style="fill:#241F48;" d="M476.91,1746.336c21.206-21.206,21.206-55.587,0-76.792c-21.205-21.206-55.586-21.207-76.792-0.001
		l10.257,10.258l0,0c15.566-15.306,40.584-15.239,56.052,0.227c15.467,15.467,15.532,40.484,0.226,56.051L476.91,1746.336
		c-3.975,3.976-8.415,7.207-13.144,9.692c-3.151,1.657-6.433,2.983-9.792,3.977c-3.358,0.994-6.794,1.656-10.255,1.988
		c-3.46,0.331-6.948,0.331-10.41,0c-3.46-0.331-6.898-0.994-10.256-1.988c-3.358-0.994-6.639-2.319-9.791-3.977
		c-4.729-2.484-9.167-5.716-13.144-9.692c-5.302-5.302-9.278-11.426-11.928-17.963c-0.663-1.634-1.243-3.294-1.74-4.973
		c-0.994-3.358-1.656-6.794-1.987-10.255c-0.332-3.462-0.332-6.948,0-10.41c0.331-3.462,0.993-6.898,1.987-10.255
		c0.497-1.679,1.077-3.339,1.74-4.973c2.65-6.537,6.626-12.661,11.928-17.963l-11.348-11.348l-0.007-0.005
		c-0.08,0.079-0.164,0.153-0.244,0.231c-27.479,27.481-27.479,72.034,0,99.513c27.48,27.48,72.034,27.481,99.513,0
		c0.079-0.079,0.152-0.163,0.232-0.244l-0.006-0.005L476.91,1746.336z"/>
	<path style="fill:#100F20;" d="M388.19,1687.506c-0.663,1.634-1.243,3.294-1.74,4.973c-0.994,3.358-1.656,6.794-1.987,10.255
		c-0.332,3.462-0.332,6.948,0,10.41c0.331,3.462,0.993,6.897,1.987,10.255c0.497,1.68,1.077,3.34,1.74,4.973
		c2.65,6.537,6.626,12.661,11.928,17.963c3.977,3.976,8.414,7.207,13.144,9.692c3.153,1.657,6.433,2.983,9.791,3.977
		c3.358,0.994,6.796,1.656,10.256,1.988c3.462,0.331,6.949,0.331,10.41,0c3.462-0.331,6.898-0.994,10.255-1.988
		c3.358-0.994,6.641-2.319,9.792-3.977c4.729-2.484,9.169-5.716,13.144-9.692l-10.257-10.257l0,0c-0.079,0.08-0.146,0.17-0.226,0.25
		c-15.548,15.547-40.753,15.547-56.301,0c-15.548-15.547-15.548-40.754,0-56.301c0.08-0.08,0.168-0.146,0.249-0.226l-10.257-10.258
		l0,0C394.816,1674.845,390.84,1680.97,388.19,1687.506z"/>
	<path style="fill:#5EBFBD;" d="M410.126,1736.329c15.547,15.547,40.753,15.547,56.301,0c0.08-0.08,0.147-0.17,0.226-0.25
		l-45.288-45.289c-3.199-0.833-5.277-2.216-5.503-4c-0.056-0.439,0.013-0.882,0.176-1.326l-5.663-5.663l0,0
		c-0.08,0.08-0.169,0.146-0.249,0.226C394.578,1695.575,394.578,1720.782,410.126,1736.329z"/>
	<path style="fill:#058FB5;" d="M270.286,1601.452l30.871-30.87l-42.931-42.93l0,0l0,0c-1.066,1.066-2.044,2.194-2.935,3.378
		c-0.075,0.099-0.128,0.21-0.201,0.31c-0.804,1.093-1.552,2.221-2.212,3.403c-0.232,0.417-0.399,0.869-0.613,1.295
		c-0.451,0.896-0.916,1.784-1.288,2.724c-0.087,0.216-0.136,0.451-0.218,0.67c-0.441,1.178-0.854,2.371-1.174,3.606
		c-0.148,0.571-0.227,1.172-0.349,1.754c-0.192,0.912-0.412,1.812-0.542,2.749c-0.108,0.767-0.133,1.563-0.199,2.344
		c-0.066,0.784-0.173,1.552-0.197,2.349c-0.032,1.003,0.026,2.03,0.059,3.052c0.019,0.6-0.007,1.186,0.035,1.791
		c0.084,1.242,0.26,2.503,0.437,3.764c0.056,0.4,0.074,0.793,0.139,1.194c0.216,1.328,0.521,2.668,0.839,4.009
		c0.08,0.345,0.127,0.684,0.215,1.029c0.369,1.446,0.824,2.899,1.306,4.351c0.081,0.243,0.134,0.484,0.217,0.727
		c0.515,1.489,1.114,2.978,1.749,4.465c0.087,0.206,0.151,0.412,0.241,0.617c0.622,1.423,1.33,2.838,2.061,4.249
		c0.138,0.267,0.248,0.537,0.389,0.804c0.748,1.402,1.579,2.791,2.433,4.174c0.164,0.267,0.301,0.539,0.47,0.806
		c0.848,1.337,1.778,2.654,2.725,3.965c0.216,0.301,0.403,0.61,0.625,0.909c0.935,1.261,1.954,2.494,2.981,3.722
		c0.279,0.333,0.524,0.678,0.809,1.008c1.016,1.175,2.111,2.315,3.208,3.453c0.345,0.359,0.654,0.732,1.008,1.085
		c0.001,0.002,0.003,0.003,0.004,0.005C270.262,1601.426,270.274,1601.439,270.286,1601.452z"/>
	<path style="fill:#100F20;" d="M572.062,1875.277l16.894-16.894l0,0l-11.893-11.892l-62.406,62.405
		c1.643,1.642,3.54,2.874,5.565,3.694c4.048,1.642,8.608,1.642,12.656,0c2.024-0.82,3.922-2.053,5.564-3.694L572.062,1875.277z"/>
	<path style="fill:#A7D9E3;" d="M415.862,1686.79c0.226,1.784,2.304,3.166,5.503,4l45.288,45.289l0,0
		c15.306-15.567,15.241-40.584-0.226-56.051c-15.467-15.466-40.486-15.533-56.052-0.227l5.663,5.663
		C415.875,1685.908,415.806,1686.351,415.862,1686.79z M433.633,1677.583c10.294-1.303,19.027,0.706,19.505,4.487
		c0.48,3.781-7.476,7.903-17.771,9.207c-5.467,0.692-10.449,0.429-14.032-0.518l-5.285-5.285
		C417.273,1682.098,424.524,1678.736,433.633,1677.583z"/>
</g>
</svg>
